<svg xmlns="http://www.w3.org/2000/svg" viewBox="0 0 417.05 113.86"><defs><style>.cls-1{fill:#8eb1c7;}.cls-2{fill:#eb4511;}</style></defs><g id="Capa_2" data-name="Capa 2"><g id="Pruebas"><path class="cls-1" d="M183.59,36.28q-4.34-5.46-12.39-5.46a16.52,16.52,0,0,0-10.53,3.75,18,18,0,0,0-3.12,3.22A1.4,1.4,0,0,1,155,37V33.61a1.4,1.4,0,0,0-1.4-1.4H139.31a1.41,1.41,0,0,0-1.41,1.4v77.58a1.41,1.41,0,0,0,1.41,1.4h14.31a1.4,1.4,0,0,0,1.4-1.4V56.53q0-5,1.93-7.63t6-2.6q4,0,6,2.52t2,7.55v54.82a1.4,1.4,0,0,0,1.4,1.4h14.24a1.4,1.4,0,0,0,1.4-1.4V51.88Q187.93,41.74,183.59,36.28Z"/><rect class="cls-2" x="196.47" y="0.54" width="16.88" height="16.88" rx="3.93"/><rect class="cls-1" x="196.47" y="32.21" width="16.88" height="80.37" rx="1.4"/><path class="cls-1" d="M265,89.13a1.4,1.4,0,0,0-1.4,1.4v.22a7.24,7.24,0,0,1-2.1,5.54,9.6,9.6,0,0,1-12.31-.55Q247,93.23,247,88.58V77.37h.08V64H247V57.14q0-5.34,2.13-8.24A6.92,6.92,0,0,1,255,46a7.37,7.37,0,0,1,6.12,2.75c1.44,1.84,2.17,4.4,2.17,7.71v6.1a1.41,1.41,0,0,1-1.41,1.4h-4.23a1.4,1.4,0,0,0-1.4,1.4V76a1.4,1.4,0,0,0,1.4,1.4h20.57a1.4,1.4,0,0,0,1.4-1.4V56.68q0-12.39-6.42-19.13T255,30.82q-11.53,0-18,7.08T230.64,58v4.55a1.4,1.4,0,0,1-1.4,1.4h-5.67a1.4,1.4,0,0,0-1.4,1.4V75.83a1.4,1.4,0,0,0,1.4,1.4h5.67a1.4,1.4,0,0,1,1.4,1.4V88q0,12.31,6.58,19t18.43,6.7q11.53,0,17.89-6.08t6.35-17.07h0a1.41,1.41,0,0,0-1.4-1.41Z"/><path class="cls-1" d="M122.06,64a1.4,1.4,0,0,1-1.4-1.4V54.36q0-11.31-6.35-17.43T96.42,30.82q-11.31,0-17.54,6.15-5.82,5.74-6.27,15.91A1.41,1.41,0,0,0,74,54.36H87.59A1.38,1.38,0,0,0,89,53.07a8.5,8.5,0,0,1,1.85-5,6.6,6.6,0,0,1,5.3-2.2,8.21,8.21,0,0,1,6.12,2.2,8.56,8.56,0,0,1,2.17,6.24v9.91h-.12V78.44h.12V88.81q0,5.11-2.48,7.75t-7.2,2.63c-2.58,0-4.51-.7-5.77-2.09s-1.9-3.43-1.9-6.12q0-6.2,2.56-9.37A8.17,8.17,0,0,1,94,78.83a1.41,1.41,0,0,0,1.07-1.36V65.78a1.41,1.41,0,0,0-1.51-1.4Q83.2,65.12,77.49,71,70.95,77.75,71,91q0,11.31,4.88,17t14.24,5.73a16.89,16.89,0,0,0,8.6-2,12.84,12.84,0,0,0,5.3-6c.15-.33.29-.67.43-1v6.48a1.4,1.4,0,0,0,1.4,1.4h13.46a1.4,1.4,0,0,0,1.4-1.4V78.63a1.4,1.4,0,0,1,1.4-1.4h5.74a1.39,1.39,0,0,0,1.4-1.4V65.35a1.4,1.4,0,0,0-1.4-1.4Z"/><path class="cls-1" d="M56,6.35Q49.59,0,37.89,0H2.64A2.64,2.64,0,0,0,0,2.64v10.9a2.64,2.64,0,0,0,2.64,2.64H5.9a2.65,2.65,0,0,1,2.65,2.65v91.11a2.65,2.65,0,0,0,2.64,2.65H37.81a28.55,28.55,0,0,0,13.28-2.87,19.44,19.44,0,0,0,8.44-8.32,27.75,27.75,0,0,0,2.91-13.21V24.39Q62.44,12.71,56,6.35Zm-10.68,81A9.66,9.66,0,0,1,43.2,94a7.75,7.75,0,0,1-6.08,2.36h-8.9a2.64,2.64,0,0,1-2.64-2.64V18.83a2.65,2.65,0,0,1,2.64-2.65h8.9a7.84,7.84,0,0,1,6.08,2.33q2.13,2.32,2.13,6.73Z"/><path class="cls-2" d="M346.21,60.59a18,18,0,0,0-7.67-5.26,1.39,1.39,0,0,1,0-2.59,16.73,16.73,0,0,0,6.61-5q4-5,4-12.94v-12q0-10.92-6.35-16.88t-18-6H292.2a4,4,0,0,0-4,4v8.15a4,4,0,0,0,4,4h3.13a1.4,1.4,0,0,1,1.4,1.4v89.65a5.36,5.36,0,0,0,5.36,5.36h24.6q11.46,0,17.7-6.12t6.23-17.11V74.26Q350.62,65.82,346.21,60.59ZM324,16a8.2,8.2,0,0,1,6.12,2.21,8.33,8.33,0,0,1,2.17,6.08V36q0,5-2.21,7.62a7.63,7.63,0,0,1-6.23,2.67h-8.67a1.4,1.4,0,0,1-1.4-1.4V17.35a1.4,1.4,0,0,1,1.4-1.4Zm9.6,72.32a8.12,8.12,0,0,1-2.32,6.12c-1.55,1.5-3.77,2.24-6.66,2.24h-9.44a1.4,1.4,0,0,1-1.4-1.4V63.58a1.4,1.4,0,0,1,1.4-1.4h8.9a8.76,8.76,0,0,1,7,2.94q2.55,2.94,2.55,8.29Z"/><path class="cls-2" d="M402.19,89.25a1.4,1.4,0,0,0-1.41,1.4v.22a7.21,7.21,0,0,1-2.09,5.53,9.58,9.58,0,0,1-12.31-.54c-1.5-1.68-2.24-4.06-2.24-7.16V77.48h.08V64.07h-.08V57.26q0-5.34,2.13-8.25a6.94,6.94,0,0,1,5.92-2.9,7.37,7.37,0,0,1,6.12,2.75q2.16,2.74,2.16,7.7v6.11a1.4,1.4,0,0,1-1.4,1.4h-4.23a1.39,1.39,0,0,0-1.4,1.4V76.08a1.39,1.39,0,0,0,1.4,1.4h20.57a1.39,1.39,0,0,0,1.4-1.4V56.8q0-12.39-6.42-19.13t-18.2-6.74q-11.54,0-18,7.09T367.8,58.11v4.56a1.4,1.4,0,0,1-1.4,1.4h-5.67a1.4,1.4,0,0,0-1.4,1.4V76a1.4,1.4,0,0,0,1.4,1.4h5.67a1.4,1.4,0,0,1,1.4,1.4v9.41q0,12.3,6.58,19t18.43,6.69q11.54,0,17.89-6.07t6.35-17.08h0a1.4,1.4,0,0,0-1.4-1.4Z"/></g></g></svg>